<svg xmlns="http://www.w3.org/2000/svg"  viewBox="0 0 100 100" width="100px" height="100px"><path fill="#fefdef" d="M70.645,82h-41.29C23.084,82,18,76.916,18,70.645v-41.29C18,23.084,23.084,18,29.355,18h41.29	C76.916,18,82,23.084,82,29.355v41.29C82,76.916,76.916,82,70.645,82z"/><path fill="#1f212b" d="M70.646,83H29.354C22.542,83,17,77.458,17,70.646V29.354C17,22.542,22.542,17,29.354,17h41.291	C77.458,17,83,22.542,83,29.354v41.291C83,77.458,77.458,83,70.646,83z M29.354,19C23.645,19,19,23.645,19,29.354v41.291	C19,76.355,23.645,81,29.354,81h41.291C76.355,81,81,76.355,81,70.646V29.354C81,23.645,76.355,19,70.646,19H29.354z"/><path fill="#1f212b" d="M69.5,78h-39c-4.687,0-8.5-3.813-8.5-8.5v-39c0-4.687,3.813-8.5,8.5-8.5h37	c0.276,0,0.5,0.224,0.5,0.5S67.776,23,67.5,23h-37c-4.136,0-7.5,3.364-7.5,7.5v39c0,4.136,3.364,7.5,7.5,7.5h39	c4.136,0,7.5-3.364,7.5-7.5v-23c0-0.276,0.224-0.5,0.5-0.5s0.5,0.224,0.5,0.5v23C78,74.187,74.187,78,69.5,78z"/><path fill="#1f212b" d="M77.5,45c-0.276,0-0.5-0.224-0.5-0.5v-8c0-0.276,0.224-0.5,0.5-0.5s0.5,0.224,0.5,0.5v8	C78,44.776,77.776,45,77.5,45z"/><path fill="#1f212b" d="M77.5,35c-0.276,0-0.5-0.224-0.5-0.5v-1c0-0.276,0.224-0.5,0.5-0.5s0.5,0.224,0.5,0.5v1	C78,34.776,77.776,35,77.5,35z"/><path fill="#70b570" d="M108.773,930.318 c-3.703-0.329-6.944-1.796-9.406-4.257c-2.325-2.324-3.751-5.274-4.236-8.759c-0.119-0.857-0.146-2.869-0.05-3.773 c0.311-2.932,1.379-5.552,3.182-7.81c0.486-0.608,1.496-1.64,2.077-2.122c3.082-2.555,6.972-3.799,11.182-3.577 c1.986,0.105,3.35,0.348,4.877,0.872c1.059,0.363,2.582,1.132,3.051,1.541l0.119,0.103l-0.013,1.155l-0.013,1.155l-0.503-0.309 c-2.305-1.419-5.23-2.17-8.442-2.168c-2.723,0.002-5.236,0.731-7.376,2.141c-2.201,1.451-3.86,3.498-4.831,5.964 c-1.315,3.338-1.111,7.418,0.534,10.711c1.876,3.754,5.331,6.169,9.618,6.723c1.261,0.163,3.122,0.089,4.443-0.177 c4.324-0.87,7.037-3.827,7.615-8.3c0.06-0.467,0.082-1.029,0.085-2.25l0.005-1.627l-5.109-0.012l-5.109-0.012v-1.148v-1.148 h6.246h6.246l0,2.07c0,2.334-0.051,3.556-0.189,4.533c-0.416,2.95-1.514,5.299-3.327,7.111c-1.837,1.837-4.188,2.915-7.205,3.303 C111.538,930.34,109.478,930.38,108.773,930.318L108.773,930.318z" transform="matrix(.52325 0 0 .52325 -23.653 -427.84)"/><path fill="#70b570" d="M167.043,902.901v-5.031h1.173 h1.173v4.252v4.252l-0.203,0.091c-0.419,0.188-1.013,0.594-2.083,1.421C167.055,907.923,167.043,906.918,167.043,902.901 L167.043,902.901z" transform="matrix(.52325 0 0 .52325 -23.653 -427.84)"/><path fill="#70b570" d="M163.501,904.723v-6.854h1.173 h1.173v5.485v5.485l-0.367,0.39c-0.375,0.399-1.05,1.192-1.594,1.873c-0.168,0.211-0.323,0.403-0.345,0.428 C163.519,911.556,163.501,908.493,163.501,904.723z" transform="matrix(.52325 0 0 .52325 -23.653 -427.84)"/><path fill="#70b570" d="M109.395,926.748 c-2.945-0.232-5.425-1.368-7.377-3.381c-0.573-0.591-0.904-1.002-1.345-1.671c-1.633-2.478-2.268-5.714-1.712-8.723 c0.713-3.858,3.376-7.061,7.105-8.546c0.948-0.378,2.118-0.656,3.23-0.769c0.722-0.073,2.659-0.032,3.424,0.072 c2.464,0.337,4.663,1.098,6.425,2.224l0.419,0.267l0,1.135c0,1.034-0.007,1.139-0.084,1.18c-0.066,0.035-0.214-0.037-0.682-0.334 c-1.846-1.17-3.811-1.853-6.126-2.131c-0.882-0.106-2.788-0.119-3.446-0.025c-4.23,0.609-7.244,3.651-7.779,7.856 c-0.146,1.144-0.047,2.758,0.238,3.877c0.636,2.498,2.174,4.53,4.233,5.592c1.397,0.721,2.625,1.012,4.265,1.012 c2.296,0,4.143-0.653,5.409-1.912c0.821-0.816,1.301-1.806,1.41-2.91l0.034-0.347h-3.283h-3.283v-1.22v-1.22h4.499h4.499v0.976 c0,1.506-0.12,2.4-0.458,3.411c-0.685,2.049-2.139,3.675-4.136,4.628c-1.299,0.62-2.681,0.921-4.396,0.959 C110.014,926.759,109.526,926.759,109.395,926.748L109.395,926.748z" transform="matrix(.52325 0 0 .52325 -23.653 -427.84)"/><path fill="#70b570" d="M174.543,926.775 c-1.861-0.165-3.499-0.986-4.897-2.454c-1.003-1.052-1.713-2.308-2.022-3.574c-0.179-0.733-0.235-0.59,0.787-1.999 c0.499-0.687,0.921-1.251,0.938-1.253c0.017-0.002,0.045,0.229,0.062,0.512c0.043,0.716,0.108,1.154,0.252,1.711 c0.639,2.471,2.433,4.257,4.672,4.649c0.594,0.104,1.615,0.066,2.186-0.081c2.061-0.531,3.432-2.09,3.956-4.496 c0.126-0.581,0.127-2.288,0.001-2.861c-0.256-1.166-0.757-2.151-1.48-2.913c-1.034-1.089-2.39-1.645-4.008-1.645 c-2.077,0-3.587,0.842-5.58,3.112c-1.948,2.219-5.183,6.33-6.81,8.655l-0.581,0.83v-1.931v-1.931l0.827-1.125 c0.455-0.619,1.252-1.674,1.772-2.345c0.519-0.671,1.24-1.608,1.602-2.082c1.661-2.176,2.732-3.268,4.094-4.172 c2.808-1.864,6.504-1.91,9.184-0.117c2.735,1.831,4.05,5.411,3.316,9.033c-0.592,2.922-2.463,5.176-5.052,6.087 c-0.56,0.197-1.204,0.33-1.888,0.389C175.242,926.829,175.159,926.829,174.543,926.775L174.543,926.775z" transform="matrix(.52325 0 0 .52325 -23.653 -427.84)"/><path fill="#70b570" d="M154.934,923.661 c0-5.206-0.01-6.105-0.074-6.536c-0.234-1.578-0.963-2.892-2.059-3.715c-0.711-0.533-1.508-0.865-2.454-1.02 c-0.678-0.112-1.691-0.068-2.329,0.1c-2.128,0.562-3.658,2.295-4.12,4.667c-0.132,0.677-0.12,1.954,0.023,2.632 c0.474,2.233,1.89,3.845,3.881,4.419c1.753,0.505,4.168,0.127,5.66-0.886l0.276-0.187l-0.013,1.234l-0.013,1.234l-0.479,0.25 c-1.211,0.633-3.109,1.037-4.451,0.948c-2.57-0.172-4.638-1.338-6.014-3.392c-1.465-2.187-1.839-5.36-0.948-8.036 c1.177-3.536,4.478-5.695,8.242-5.393c2.041,0.164,3.574,0.849,4.92,2.198c1.243,1.247,1.91,2.593,2.23,4.502 c0.077,0.458,0.086,1.059,0.101,6.76l0.017,6.258h-1.199h-1.199V923.661z" transform="matrix(.52325 0 0 .52325 -23.653 -427.84)"/><path fill="#70b570" d="M128.085,923.511 c0.001-6.345,0.021-7.195,0.189-8.022c0.433-2.125,1.694-3.815,3.537-4.742c0.436-0.219,1.343-0.509,1.873-0.598 c1.598-0.269,3.258-0.026,4.437,0.649l0.249,0.143l-0.197,0.321c-0.109,0.176-0.346,0.628-0.528,1.003 c-0.182,0.375-0.334,0.682-0.339,0.682s-0.213-0.073-0.463-0.162c-1.07-0.382-2.048-0.444-3.048-0.193 c-0.936,0.235-1.789,0.788-2.341,1.518c-0.308,0.407-0.664,1.159-0.821,1.732l-0.131,0.479l-0.014,6.689l-0.014,6.689h-1.195 h-1.195L128.085,923.511z" transform="matrix(.52325 0 0 .52325 -23.653 -427.84)"/><path fill="#70b570" d="M124.591,923.104 c0-6.588,0.011-7.121,0.172-8.1c0.496-3.018,2.076-5.482,4.434-6.913c2.241-1.361,5.215-1.826,8.077-1.265 c1.019,0.2,2.286,0.693,3.068,1.193l0.316,0.202l-0.56,0.555c-0.308,0.305-0.657,0.67-0.776,0.81l-0.216,0.255l-0.282-0.142 c-0.94-0.474-2.532-0.823-3.756-0.823c-3.85,0-6.853,2.235-7.794,5.802c-0.323,1.225-0.308,0.845-0.326,8.281l-0.016,6.736 h-1.171h-1.171L124.591,923.104z" transform="matrix(.52325 0 0 .52325 -23.653 -427.84)"/><path fill="#70b570" d="M174.174,930.337 c-3.593-0.327-6.569-2.052-8.398-4.866c-0.289-0.444-0.79-1.453-0.889-1.789l-0.059-0.199l0.832-1.132l0.832-1.132l0.042,0.158 c0.538,2.023,1.719,3.744,3.384,4.931c0.518,0.369,1.458,0.869,2.081,1.105c1.564,0.594,3.297,0.737,4.985,0.411 c1.098-0.212,2.402-0.77,3.315-1.419c0.562-0.399,1.603-1.433,1.982-1.967c0.926-1.307,1.536-2.859,1.782-4.538 c0.113-0.769,0.114-2.321,0.002-3.083c-0.389-2.657-1.599-4.795-3.55-6.275c-1.642-1.245-3.956-1.892-6.163-1.721 c-3.342,0.258-5.644,1.778-8.957,5.912c-0.34,0.424-1.231,1.59-1.981,2.59s-1.371,1.828-1.38,1.839 c-0.009,0.011-0.017-0.765-0.017-1.724v-1.744l0.803-1.124c1.701-2.382,2.437-3.292,3.599-4.45 c1.21-1.206,2.178-1.92,3.472-2.561c1.087-0.539,2.131-0.862,3.422-1.061c0.774-0.119,2.672-0.119,3.446,0 c2.638,0.406,4.738,1.475,6.509,3.315c1.735,1.802,2.773,4.038,3.166,6.816c0.086,0.61,0.086,2.833,0,3.446 c-0.279,1.986-0.923,3.768-1.894,5.241c-1.802,2.733-4.427,4.422-7.662,4.93C176.416,930.321,174.637,930.38,174.174,930.337 L174.174,930.337z" transform="matrix(.52325 0 0 .52325 -23.653 -427.84)"/><path fill="#70b570" d="M148.186,930.312 c-5.187-0.475-9.191-4.121-10.19-9.278c-0.189-0.977-0.22-1.343-0.22-2.632c0-1.579,0.106-2.394,0.481-3.686 c0.981-3.383,3.473-6.187,6.65-7.482c1.518-0.619,2.835-0.868,4.571-0.864c1.683,0.004,2.923,0.222,4.331,0.762 c1.503,0.576,2.717,1.377,3.857,2.543c1.658,1.697,2.646,3.739,3.073,6.355c0.1,0.613,0.102,0.757,0.118,7.146l0.016,6.521 h-1.198h-1.198l0-5.995c0-3.722-0.019-6.212-0.05-6.569c-0.204-2.366-1.168-4.453-2.75-5.95c-1.775-1.68-4.376-2.566-6.927-2.361 c-4.383,0.353-7.641,3.359-8.411,7.76c-0.215,1.228-0.177,2.867,0.097,4.225c0.198,0.98,0.699,2.27,1.193,3.072 c1.033,1.678,2.553,2.903,4.42,3.561c1.599,0.564,3.43,0.706,4.989,0.389c0.891-0.182,1.951-0.589,2.482-0.955l0.219-0.151v1.189 v1.189l-0.275,0.182c-0.783,0.517-1.935,0.895-3.147,1.033C149.815,930.374,148.838,930.372,148.186,930.312L148.186,930.312z" transform="matrix(.52325 0 0 .52325 -23.653 -427.84)"/></svg>