<svg xmlns="http://www.w3.org/2000/svg"  viewBox="0 0 30 30" width="30px" height="30px"><path id="Слой_1" d="M25.6,6.5c-0.3-0.3-0.7-0.5-1.1-0.5h-4.5c-0.5-2.3-2.5-4-4.9-4s-4.4,1.7-4.9,4H5.6c-0.4,0-0.8,0.2-1.1,0.5 C4.1,6.8,4,7.3,4,7.7l0.7,15.2C4.8,24.7,6.2,26,7.9,26h14.1c1.7,0,3.2-1.4,3.2-3.1L26,7.7C26,7.3,25.9,6.8,25.6,6.5z M15,4 c1.3,0,2.4,0.8,2.8,2h-5.6C12.6,4.9,13.7,4,15,4z M15,22c-2.5,0-4.2-1.8-4.2-1.8l1.1-1.8c0,0,2,1.5,3.2,1.5 c1.1,0,2.1-0.6,2.1-1.4c0-0.9-0.6-1.3-2.4-1.9c-1.5-0.6-3.5-1.3-3.5-3.4c0-1.9,1.7-3.3,3.9-3.3c2.5,0,3.8,1.4,3.8,1.4l-1,1.7 c0,0-1.5-1.1-2.8-1.1c-1.1,0-1.9,0.5-1.9,1.3c0,0.6,0.6,1,2.1,1.5c1.6,0.6,3.8,1.4,3.8,3.8C19.1,20.5,17.3,22,15,22z"/></svg>